# xmcd
#
# Track frame offsets: 
#        150
#        27165
#        45943
#        86631
#        106926
#        127506
#        152708
#        173680
#        189139
#        226531
#        252981
#
# Disc length: 3592 seconds
#
# Revision: 0
# Processed by: cddbd v1.5.2PL0 Copyright (c) Steve Scherf et al.
# Submitted via: ExactAudioCopyFreeDBPlugin 1.0
#
DISCID=6b0e060b
DTITLE=Bob Harrisson - Live
DYEAR=2006
DGENRE=blues
TTITLE0=Sweet Home Chicago
TTITLE1=Something You Got
TTITLE2=Why I Sing The Blues
TTITLE3=Dock Of The Bay
TTITLE4=Kansas City
TTITLE5=You Don't Know Me
TTITLE6=Chat Dans Gorge
TTITLE7=Intro Rick
TTITLE8=Mustang Sally
TTITLE9=I Got My Mojo Working
TTITLE10=The Thrill Is Gone
EXTD=
EXTT0=
EXTT1=
EXTT2=
EXTT3=
EXTT4=
EXTT5=
EXTT6=
EXTT7=
EXTT8=
EXTT9=
EXTT10=
PLAYORDER=
